<mxfile host="Electron" modified="2024-05-10T09:25:21.884Z" agent="Mozilla/5.0 (Macintosh; Intel Mac OS X 10_15_7) AppleWebKit/537.36 (KHTML, like Gecko) draw.io/24.2.5 Chrome/120.0.6099.109 Electron/28.1.0 Safari/537.36" etag="3KAjxF_XI1L7Msm8890P" version="24.2.5" type="device">
  <diagram name="Side-1" id="a_JhCDj2OJoMwPLHqKGG">
    <mxGraphModel dx="1004" dy="645" grid="1" gridSize="10" guides="1" tooltips="1" connect="1" arrows="1" fold="1" page="1" pageScale="1" pageWidth="827" pageHeight="1169" math="0" shadow="0">
      <root>
        <mxCell id="0" />
        <mxCell id="1" parent="0" />
        <mxCell id="MuWP78oe5oZ2tSVMEtjd-1" value="" style="rounded=0;whiteSpace=wrap;html=1;" vertex="1" parent="1">
          <mxGeometry x="217.23" y="280" width="270" height="210" as="geometry" />
        </mxCell>
        <mxCell id="MuWP78oe5oZ2tSVMEtjd-2" value="Manager" style="text;strokeColor=none;fillColor=none;html=1;fontSize=24;fontStyle=1;verticalAlign=middle;align=center;" vertex="1" parent="1">
          <mxGeometry x="302.23" y="280" width="100" height="40" as="geometry" />
        </mxCell>
        <mxCell id="MuWP78oe5oZ2tSVMEtjd-6" value="" style="rounded=0;whiteSpace=wrap;html=1;" vertex="1" parent="1">
          <mxGeometry x="370" y="560" width="194.46" height="160" as="geometry" />
        </mxCell>
        <mxCell id="MuWP78oe5oZ2tSVMEtjd-7" value="Worker 2" style="text;strokeColor=none;fillColor=none;html=1;fontSize=24;fontStyle=1;verticalAlign=middle;align=center;" vertex="1" parent="1">
          <mxGeometry x="417.23" y="560" width="100" height="40" as="geometry" />
        </mxCell>
        <mxCell id="MuWP78oe5oZ2tSVMEtjd-8" value="Grafana" style="rounded=0;whiteSpace=wrap;html=1;" vertex="1" parent="1">
          <mxGeometry x="227.23000000000002" y="400" width="120" height="60" as="geometry" />
        </mxCell>
        <mxCell id="MuWP78oe5oZ2tSVMEtjd-9" value="Loki" style="rounded=0;whiteSpace=wrap;html=1;" vertex="1" parent="1">
          <mxGeometry x="357.23" y="400" width="120" height="60" as="geometry" />
        </mxCell>
        <mxCell id="MuWP78oe5oZ2tSVMEtjd-12" value="" style="rounded=0;whiteSpace=wrap;html=1;" vertex="1" parent="1">
          <mxGeometry x="150" y="560" width="194.46" height="160" as="geometry" />
        </mxCell>
        <mxCell id="MuWP78oe5oZ2tSVMEtjd-13" value="Worker 2" style="text;strokeColor=none;fillColor=none;html=1;fontSize=24;fontStyle=1;verticalAlign=middle;align=center;" vertex="1" parent="1">
          <mxGeometry x="197.23000000000002" y="560" width="100" height="40" as="geometry" />
        </mxCell>
        <mxCell id="MuWP78oe5oZ2tSVMEtjd-15" value="" style="endArrow=classic;html=1;rounded=0;entryX=0.5;entryY=1;entryDx=0;entryDy=0;exitX=0.5;exitY=0;exitDx=0;exitDy=0;startArrow=classic;startFill=1;endFill=1;" edge="1" parent="1" source="MuWP78oe5oZ2tSVMEtjd-13" target="MuWP78oe5oZ2tSVMEtjd-1">
          <mxGeometry width="50" height="50" relative="1" as="geometry">
            <mxPoint x="380" y="570" as="sourcePoint" />
            <mxPoint x="430" y="520" as="targetPoint" />
          </mxGeometry>
        </mxCell>
        <mxCell id="MuWP78oe5oZ2tSVMEtjd-17" value="" style="endArrow=classic;html=1;rounded=0;entryX=0.5;entryY=1;entryDx=0;entryDy=0;exitX=0.5;exitY=0;exitDx=0;exitDy=0;startArrow=classic;startFill=1;endFill=1;" edge="1" parent="1" source="MuWP78oe5oZ2tSVMEtjd-7" target="MuWP78oe5oZ2tSVMEtjd-1">
          <mxGeometry width="50" height="50" relative="1" as="geometry">
            <mxPoint x="380" y="570" as="sourcePoint" />
            <mxPoint x="430" y="520" as="targetPoint" />
          </mxGeometry>
        </mxCell>
        <mxCell id="MuWP78oe5oZ2tSVMEtjd-24" value="" style="whiteSpace=wrap;html=1;fillColor=none;" vertex="1" parent="1">
          <mxGeometry x="170" y="600" width="150" height="90" as="geometry" />
        </mxCell>
        <mxCell id="MuWP78oe5oZ2tSVMEtjd-18" value="PosteSQL database" style="shape=cylinder3;whiteSpace=wrap;html=1;boundedLbl=1;backgroundOutline=1;size=15;" vertex="1" parent="1">
          <mxGeometry x="281.46" y="780" width="146" height="130" as="geometry" />
        </mxCell>
        <mxCell id="MuWP78oe5oZ2tSVMEtjd-19" value="" style="endArrow=classic;html=1;rounded=0;entryX=0.5;entryY=1;entryDx=0;entryDy=0;exitX=0;exitY=0;exitDx=0;exitDy=15;exitPerimeter=0;startArrow=classic;startFill=1;endFill=1;" edge="1" parent="1" source="MuWP78oe5oZ2tSVMEtjd-18" target="MuWP78oe5oZ2tSVMEtjd-12">
          <mxGeometry width="50" height="50" relative="1" as="geometry">
            <mxPoint x="220" y="540" as="sourcePoint" />
            <mxPoint x="270" y="490" as="targetPoint" />
          </mxGeometry>
        </mxCell>
        <mxCell id="MuWP78oe5oZ2tSVMEtjd-20" style="rounded=0;orthogonalLoop=1;jettySize=auto;html=1;exitX=0.5;exitY=1;exitDx=0;exitDy=0;entryX=1;entryY=0;entryDx=0;entryDy=15;entryPerimeter=0;endArrow=classic;endFill=1;startArrow=classic;startFill=1;" edge="1" parent="1" source="MuWP78oe5oZ2tSVMEtjd-6" target="MuWP78oe5oZ2tSVMEtjd-18">
          <mxGeometry relative="1" as="geometry" />
        </mxCell>
        <mxCell id="MuWP78oe5oZ2tSVMEtjd-21" value="User" style="shape=umlActor;verticalLabelPosition=bottom;verticalAlign=top;html=1;outlineConnect=0;" vertex="1" parent="1">
          <mxGeometry y="380" width="30" height="60" as="geometry" />
        </mxCell>
        <mxCell id="MuWP78oe5oZ2tSVMEtjd-22" value="" style="endArrow=classic;html=1;rounded=0;entryX=0;entryY=0.5;entryDx=0;entryDy=0;" edge="1" parent="1" source="MuWP78oe5oZ2tSVMEtjd-21" target="MuWP78oe5oZ2tSVMEtjd-1">
          <mxGeometry width="50" height="50" relative="1" as="geometry">
            <mxPoint x="80" y="540" as="sourcePoint" />
            <mxPoint x="130" y="490" as="targetPoint" />
          </mxGeometry>
        </mxCell>
        <mxCell id="MuWP78oe5oZ2tSVMEtjd-23" value="Prometheus" style="rounded=0;whiteSpace=wrap;html=1;" vertex="1" parent="1">
          <mxGeometry x="292.23" y="330" width="120" height="60" as="geometry" />
        </mxCell>
        <mxCell id="MuWP78oe5oZ2tSVMEtjd-25" value="Loki logging plugin" style="text;strokeColor=none;align=center;fillColor=none;html=1;verticalAlign=middle;whiteSpace=wrap;rounded=0;" vertex="1" parent="1">
          <mxGeometry x="170" y="600" width="111.46" height="20" as="geometry" />
        </mxCell>
        <mxCell id="MuWP78oe5oZ2tSVMEtjd-14" value="Minitwit" style="rounded=0;whiteSpace=wrap;html=1;" vertex="1" parent="1">
          <mxGeometry x="187.23000000000002" y="620" width="120" height="60" as="geometry" />
        </mxCell>
        <mxCell id="MuWP78oe5oZ2tSVMEtjd-27" value="" style="whiteSpace=wrap;html=1;fillColor=none;" vertex="1" parent="1">
          <mxGeometry x="392.23" y="600" width="150" height="90" as="geometry" />
        </mxCell>
        <mxCell id="MuWP78oe5oZ2tSVMEtjd-28" value="Minitwit" style="rounded=0;whiteSpace=wrap;html=1;" vertex="1" parent="1">
          <mxGeometry x="409.46000000000004" y="620" width="120" height="60" as="geometry" />
        </mxCell>
        <mxCell id="MuWP78oe5oZ2tSVMEtjd-29" value="Loki logging plugin" style="text;strokeColor=none;align=center;fillColor=none;html=1;verticalAlign=middle;whiteSpace=wrap;rounded=0;" vertex="1" parent="1">
          <mxGeometry x="392.23" y="600" width="111.46" height="20" as="geometry" />
        </mxCell>
      </root>
    </mxGraphModel>
  </diagram>
</mxfile>
